<svg xmlns="http://www.w3.org/2000/svg" xmlns:xlink="http://www.w3.org/1999/xlink" width="595" height="188" viewBox="0 0 595 188">
  <defs>
    <clipPath id="clip-path">
      <rect id="Rectangle_5" data-name="Rectangle 5" width="472" height="165" transform="translate(0.083 0.157)" fill="none"/>
    </clipPath>
    <clipPath id="clip-path-2">
      <rect id="Rectangle_4" data-name="Rectangle 4" width="259" height="11.319" fill="none"/>
    </clipPath>
  </defs>
  <g id="Group_205" data-name="Group 205" transform="translate(2443 502)">
    <g id="Rectangle_155" data-name="Rectangle 155" transform="translate(-2443 -502)" fill="#27082f" stroke="#707070" stroke-width="1">
      <rect width="595" height="180" stroke="none"/>
      <rect x="0.5" y="0.5" width="594" height="179" fill="none"/>
    </g>
    <g id="Group_204" data-name="Group 204" transform="translate(-2963.727 -1612.361)">
      <path id="Path_1" data-name="Path 1" d="M215.619,32.382l42.442,20.675a2.96,2.96,0,0,1,1.139,3.891L244.938,85.077l14.291,28.582a2.961,2.961,0,0,1-1.132,3.867l-42.342,20.957a1.605,1.605,0,0,1-2.03-2.438l26.654-26.054a1.346,1.346,0,0,0,.112-1.629L226.766,87.588a4.473,4.473,0,0,1,.042-4.994l13.659-19.935a1.345,1.345,0,0,0-.1-1.648L213.6,34.824a1.605,1.605,0,0,1,2.021-2.443" transform="translate(441.449 1105.099)" fill="#fff"/>
      <path id="Path_2" data-name="Path 2" d="M167.157,74.025,124.715,94.7a2.962,2.962,0,0,0-1.139,3.892l14.262,28.129L123.547,155.3a2.962,2.962,0,0,0,1.131,3.867l42.342,20.957a1.606,1.606,0,0,0,2.03-2.438L142.4,151.635a1.346,1.346,0,0,1-.111-1.629l13.726-20.775a4.473,4.473,0,0,0-.042-4.994L142.309,104.3a1.344,1.344,0,0,1,.1-1.648l26.77-26.187a1.606,1.606,0,0,0-2.021-2.443" transform="translate(484.838 1085.012)" fill="#fff"/>
      <rect id="Rectangle_2" data-name="Rectangle 2" width="1.035" height="154.772" transform="translate(654.014 1123.711)" fill="#fff"/>
      <path id="Path_3" data-name="Path 3" d="M574.875,72.007,602,85.221a1.893,1.893,0,0,1,.728,2.487l-9.116,17.978,9.134,18.267a1.893,1.893,0,0,1-.724,2.472l-27.061,13.394a1.026,1.026,0,0,1-1.3-1.558L590.7,121.609a.861.861,0,0,0,.072-1.041L582,107.29a2.857,2.857,0,0,1,.026-3.192l8.73-12.741a.86.86,0,0,0-.063-1.053L573.584,73.568a1.026,1.026,0,0,1,1.291-1.561" transform="translate(267.731 1085.944)" fill="#fff"/>
      <path id="Path_4" data-name="Path 4" d="M381.366,121.32l5.557-19.749a4.33,4.33,0,0,1,1.673-2.4,4.693,4.693,0,0,1,2.806-.89,4.418,4.418,0,0,1,3.534,1.619,5.224,5.224,0,0,1,.863,1.537,4.784,4.784,0,0,1,.3,1.592,4.6,4.6,0,0,1-.216,1.457l-9.766,31.026a4.692,4.692,0,0,1-1.619,2.374,4.319,4.319,0,0,1-2.7.863,4.412,4.412,0,0,1-2.7-.836,4.845,4.845,0,0,1-1.672-2.347l-7.609-21.422-7.608,21.422a4.851,4.851,0,0,1-1.672,2.347,4.416,4.416,0,0,1-2.7.836,4.317,4.317,0,0,1-2.7-.863,4.688,4.688,0,0,1-1.619-2.374l-9.766-31.026a4.559,4.559,0,0,1-.216-1.457,4.757,4.757,0,0,1,.3-1.592A5.192,5.192,0,0,1,344.7,99.9a4.416,4.416,0,0,1,3.534-1.619,4.694,4.694,0,0,1,2.806.89,4.329,4.329,0,0,1,1.672,2.4l5.558,19.749,7.014-19.8a5.082,5.082,0,0,1,1.753-2.4,4.626,4.626,0,0,1,2.779-.836,4.555,4.555,0,0,1,4.533,3.237Z" transform="translate(378.569 1073.198)" fill="#fff"/>
      <path id="Path_5" data-name="Path 5" d="M455.718,138.5a.8.8,0,0,0,.432.621,5,5,0,0,0,1.079.539,9.919,9.919,0,0,0,1.4.4,6.527,6.527,0,0,0,1.349.162,6.445,6.445,0,0,0,2.7-.459,8.309,8.309,0,0,0,1.646-1q.674-.539,1.3-1a2.8,2.8,0,0,1,1.7-.459,3.637,3.637,0,0,1,1.592.377,5.036,5.036,0,0,1,1.376.972,4.6,4.6,0,0,1,.944,1.376,3.979,3.979,0,0,1,.351,1.646,3.872,3.872,0,0,1-1.241,2.806,14.35,14.35,0,0,1-4.424,2.724,15.491,15.491,0,0,1-5.936,1.107,15.839,15.839,0,0,1-5.989-1.133,14.845,14.845,0,0,1-8.229-8.067,16.6,16.6,0,0,1,0-12.464,14.84,14.84,0,0,1,8.229-8.067,15.829,15.829,0,0,1,5.989-1.133,15.516,15.516,0,0,1,4.776.755,13.43,13.43,0,0,1,4.155,2.159,11.271,11.271,0,0,1,2.914,3.345,8.678,8.678,0,0,1,1.106,4.371,4.677,4.677,0,0,1-.567,2.347,3.418,3.418,0,0,1-1.807,1.484L456.474,137.8c-.5.216-.755.45-.755.7m-2.4-6.988a.767.767,0,0,0,.459.135,1.76,1.76,0,0,0,.539-.108l8.741-3.669c.5-.216.756-.467.756-.756q0-.592-1.133-1.079a6.815,6.815,0,0,0-2.7-.486,6.545,6.545,0,0,0-2.752.567,8.663,8.663,0,0,0-2.158,1.376,6.283,6.283,0,0,0-1.43,1.781,3.861,3.861,0,0,0-.512,1.781.523.523,0,0,0,.188.459" transform="translate(329.846 1063.946)" fill="#fff"/>
      <path id="Path_6" data-name="Path 6" d="M521.977,138.316a12.87,12.87,0,0,1-2.563-1,10.5,10.5,0,0,1-1.646-1.052q-.595-.485-.755-.593a4.105,4.105,0,0,1-1.376,2.1,3.84,3.84,0,0,1-2.617.971,4.065,4.065,0,0,1-1.619-.324,4.179,4.179,0,0,1-1.322-.89,4.106,4.106,0,0,1-.89-1.349,4.261,4.261,0,0,1-.324-1.646v-32.1a4.145,4.145,0,0,1,4.155-4.155,4.265,4.265,0,0,1,1.646.324,4.1,4.1,0,0,1,1.349.89,4.18,4.18,0,0,1,.89,1.322,4.066,4.066,0,0,1,.324,1.619v7.716q0,1.134.324,1.133a1.592,1.592,0,0,0,.809-.432,10.337,10.337,0,0,1,1.484-.944,12.978,12.978,0,0,1,2.347-.944,11.445,11.445,0,0,1,3.345-.432,11.985,11.985,0,0,1,5.018,1.133,15.287,15.287,0,0,1,7.689,7.9,14.988,14.988,0,0,1,1.214,6.07,14.793,14.793,0,0,1-1.214,6.043,15.816,15.816,0,0,1-3.21,4.775,15.023,15.023,0,0,1-4.479,3.157,11.977,11.977,0,0,1-5.018,1.133,13.01,13.01,0,0,1-3.561-.432m8.579-17.4a6.945,6.945,0,0,0-1.484-2.212,7.048,7.048,0,0,0-2.185-1.484,6.713,6.713,0,0,0-2.7-.539,6.961,6.961,0,1,0,0,13.921,6.687,6.687,0,0,0,2.7-.54,7,7,0,0,0,2.185-1.484,7.071,7.071,0,0,0,1.484-7.662" transform="translate(298.822 1073.199)" fill="#fff"/>
      <rect id="Rectangle_3" data-name="Rectangle 3" width="472" height="165" transform="translate(590.727 1119.361)" fill="none"/>
      <text id="Bridge" transform="translate(880.115 1209.559)" fill="#fff" font-size="49" font-family="SegoeUI, Segoe UI"><tspan x="0" y="0">Brid</tspan><tspan y="0" letter-spacing="-0.012em">g</tspan><tspan y="0">e</tspan></text>
      <g id="Group_7" data-name="Group 7" transform="translate(590.644 1119.205)">
        <g id="Group_6" data-name="Group 6" transform="translate(0 0)" clip-path="url(#clip-path)">
          <g id="Group_5" data-name="Group 5" transform="translate(157.614 113.869)" opacity="0.6">
            <g id="Group_4" data-name="Group 4">
              <g id="Group_3" data-name="Group 3" clip-path="url(#clip-path-2)">
                <text id="AFRICA_S_ACCESS_TO_THE_NEW_WEB" data-name="AFRICA’S ACCESS TO THE NEW WEB" transform="translate(0 7.407)" fill="#fff" font-size="9" font-family="SegoeUI, Segoe UI"><tspan x="0" y="0" letter-spacing="0.2em">AFRIC</tspan><tspan y="0" letter-spacing="0.119em">A</tspan><tspan y="0" letter-spacing="0.199em">’S</tspan><tspan y="0" letter-spacing="0.2em"> </tspan><tspan y="0" letter-spacing="0.159em">A</tspan><tspan y="0" letter-spacing="0.18em">C</tspan><tspan y="0" letter-spacing="0.2em">C</tspan><tspan y="0" letter-spacing="0.199em">E</tspan><tspan y="0" letter-spacing="0.189em">S</tspan><tspan y="0" letter-spacing="0.199em">S</tspan><tspan y="0" letter-spacing="0.2em"> </tspan><tspan y="0" letter-spacing="0.152em">T</tspan><tspan y="0" letter-spacing="0.2em">O T</tspan><tspan y="0" letter-spacing="0.199em">H</tspan><tspan y="0" letter-spacing="0.2em">E NE</tspan><tspan y="0" letter-spacing="0.199em">W</tspan><tspan y="0" xml:space="preserve" letter-spacing="0.2em"> WE</tspan><tspan y="0">B</tspan></text>
              </g>
            </g>
          </g>
        </g>
      </g>
      <text id="TM" transform="translate(1033.074 1174.209)" fill="#030504" font-size="6" font-family="SegoeUI, Segoe UI"><tspan x="0" y="0">TM</tspan></text>
      <rect id="Rectangle_6" data-name="Rectangle 6" width="472" height="165" transform="translate(590.727 1119.361)" fill="none"/>
      <rect id="Rectangle_7" data-name="Rectangle 7" width="472" height="165" transform="translate(565.727 1133.361)" fill="none"/>
    </g>
  </g>
</svg>
